<svg xmlns="http://www.w3.org/2000/svg" enable-background="new 0 0 128 128" viewBox="0 0 128 128"><circle cx="64" cy="64" r="60" fill="#382673"/><circle cx="64" cy="64" r="50" fill="#473080"/><path fill="#00a58c" d="M111.2,101H16.8c11,14,28,23,47.2,23S100.2,115,111.2,101z"/><path fill="#ffde39" d="M48.4,47.9l16.6,12.7l34.4-45c-6.4-4.7-13.8-8.3-21.8-10.1L48.4,47.9z"/><path fill="#fec632" d="M95.3,12.8l-33,45.7l2.6,2l34.4-45C98,14.6,96.7,13.7,95.3,12.8z"/><polygon fill="#fff" points="80.1 40.6 62.7 27.1 50.1 45.4 48.5 48 64.9 60.5"/><polygon fill="#382673" points="77 38.2 62.3 58.6 64.9 60.5 80.1 40.6" opacity=".2"/><path fill="#00c2a9" d="M98.5,103h-69c-1.4,0-2.5-1.1-2.5-2.5l0,0c0-1.4,1.1-2.5,2.5-2.5h69c1.4,0,2.5,1.1,2.5,2.5l0,0  C101,101.9,99.9,103,98.5,103z"/><path fill="#f15a9e" d="M71.8,76.5V56.3c-6.7,0.4-13-6.5-19.3-15.2L30.6,62.1L65.5,95H93v-3.9c0-3.7-2.3-7-5.7-8.4L71.8,76.5z"/><path fill="#d44a90" d="M43.6,74.4c3.1-3.1,5.1-7.5,5.1-12.2c0-4.8-2-9.2-5.2-12.4c-5.7,3.4-10.1,7.5-12.8,12.4L43.6,74.4z"/><path fill="#fff" d="M96,96c0,1.1-0.9,2-2,2H65.5c-0.8,0-1.5-0.3-2.1-0.8L27.8,63.6c-0.8-0.8-0.8-2-0.1-2.8l1.4-1.5   c0.8-0.8,2-0.8,2.8-0.1L66.7,92H94c1.1,0,2,0.9,2,2V96z"/><path fill="#a72973" d="M69.2,51c-1.8,0-3.2,1.5-3.2,3.2c0,5.6,0,16.7,0,16.4c0,3.2,2.6,5.8,6,5.8v-5.8v-5.8V51H69.2z"/><path fill="#d44a90" d="M70,92h23v-0.9c0-1.9-0.6-3.7-1.6-5.1H76C72.7,86,70,88.7,70,92z"/><path fill="#fff" d="M51.2,86.6l-10.4-9.7c-0.5-0.4-0.4-1.2,0.1-1.5l4.9-3.6c0.4-0.3,0.9-0.2,1.3,0.1l8.8,8.2  c0.4,0.3,0.4,0.9,0.2,1.3l-3.3,5.1C52.4,87,51.7,87.1,51.2,86.6z"/><path fill="#382673" d="M51.2,86.6l-10.4-9.7c-0.5-0.4-0.4-1.2,0.1-1.5l4.9-3.6c0.4-0.3,0.9-0.2,1.3,0.1l8.8,8.2  c0.4,0.3,0.4,0.9,0.2,1.3l-3.3,5.1C52.4,87,51.7,87.1,51.2,86.6z" opacity=".2"/><path fill="#d44a90" d="M48.3,45.1l3.3-4.8c0.7-1,2.2-1.2,3.1-0.3l2.3,2.3c0.2,0.2,0.3,0.5,0.3,0.8c-0.1,1.1-0.3,3.9,1.3,5.5  C54.3,50.2,48.3,45.1,48.3,45.1z"/><line x1="71.8" x2="64.8" y1="59.8" y2="59.8" fill="none" stroke="#d44a90" stroke-linecap="round" stroke-linejoin="round" stroke-miterlimit="10" stroke-width="3"/><line x1="71.8" x2="64.8" y1="65.8" y2="65.8" fill="none" stroke="#d44a90" stroke-linecap="round" stroke-linejoin="round" stroke-miterlimit="10" stroke-width="3"/><line x1="71.8" x2="64.8" y1="71.8" y2="71.8" fill="none" stroke="#d44a90" stroke-linecap="round" stroke-linejoin="round" stroke-miterlimit="10" stroke-width="3"/></svg>